<?xml version="1.0" encoding="utf-8"?>
<!-- Generator: Adobe Illustrator 18.1.1, SVG Export Plug-In . SVG Version: 6.00 Build 0)  -->
<svg version="1.1" id="i-github" xmlns="http://www.w3.org/2000/svg" xmlns:xlink="http://www.w3.org/1999/xlink" x="0px" y="0px"
	 viewBox="-217 219 64 64" enable-background="new -217 219 64 64" xml:space="preserve">
<path fill="#F8F8F8" d="M-185,219c-18,0-32,14-32,32c0,21,19,30,22,30c2,0,2-1,2-2v-5c-7,2-10-2-11-5c0,0,0-1-2-3c-1-1-5-3-1-3
	c3,0,5,4,5,4c3,4,7,3,9,2c0-2,2-4,2-4c-8-1-14-4-14-15c0-4,1-7,3-9c0,0-2-4,0-9c0,0,5,0,9,4c3-2,13-2,16,0c4-4,9-4,9-4c2,7,0,9,0,9
	c2,2,3,5,3,9c0,11-7,14-14,15c1,1,2,3,2,6v8c0,1,0,2,2,2c3,0,22-9,22-30C-153,233-167,219-185,219z"/>
</svg>
