<?xml version="1.0" encoding="utf-8"?>
<!-- Generator: Adobe Illustrator 18.1.1, SVG Export Plug-In . SVG Version: 6.00 Build 0)  -->
<svg version="1.1" id="Layer_1" xmlns="http://www.w3.org/2000/svg" xmlns:xlink="http://www.w3.org/1999/xlink" x="0px" y="0px"
	 viewBox="-236 249 27 12.7" enable-background="new -236 249 27 12.7" xml:space="preserve">
<g>
	<path fill="#FFFFFF" d="M-210.8,250h-23.5c-0.8,0-1.4,0.6-1.4,1.3v0.1c0,0.7,0.6,1.3,1.4,1.3h23.5c0.8,0,1.4-0.6,1.4-1.3v-0.1
		C-209.4,250.6-210,250-210.8,250z"/>
	<path fill="#FFFFFF" d="M-210.8,254h-23.5c-0.8,0-1.4,0.6-1.4,1.3v0.1c0,0.7,0.6,1.3,1.4,1.3h23.5c0.8,0,1.4-0.6,1.4-1.3v-0.1
		C-209.4,254.6-210,254-210.8,254z"/>
	<path fill="#FFFFFF" d="M-210.8,258h-23.5c-0.8,0-1.4,0.6-1.4,1.3v0.1c0,0.7,0.6,1.3,1.4,1.3h23.5c0.8,0,1.4-0.6,1.4-1.3v-0.1
		C-209.4,258.6-210,258-210.8,258z"/>
</g>
</svg>
