<?xml version="1.0" encoding="utf-8"?>
<!-- Generator: Adobe Illustrator 18.1.1, SVG Export Plug-In . SVG Version: 6.00 Build 0)  -->
<svg version="1.1" id="Layer_1" xmlns="http://www.w3.org/2000/svg" xmlns:xlink="http://www.w3.org/1999/xlink" x="0px" y="0px"
	 viewBox="0 296 507 204" enable-background="new 0 296 507 204" xml:space="preserve">
<title>rs_school_js</title>
<path fill="#FFFFFF" stroke="#4B4B55" stroke-miterlimit="10" d="M261.6,363.6l23.8-1.5c0.5,3.9,1.5,6.8,3.2,8.9
	c2.6,3.3,6.2,4.9,11,4.9c3.5,0,6.3-0.8,8.2-2.5c1.8-1.4,2.9-3.5,2.9-5.8c0-2.2-1-4.3-2.7-5.6c-1.8-1.6-6.1-3.3-12.8-4.7
	c-10.9-2.4-18.8-5.7-23.4-9.9c-4.6-3.9-7.2-9.6-7.1-15.6c0-4.2,1.3-8.3,3.6-11.8c2.7-3.9,6.4-7,10.9-8.7c4.8-2.1,11.5-3.2,19.9-3.2
	c10.3,0,18.2,1.9,23.6,5.8c5.4,3.8,8.7,9.9,9.7,18.4l-23.5,1.4c-0.6-3.6-1.9-6.2-4-8c-2.1-1.7-4.8-2.5-8.3-2.5
	c-2.9,0-5.1,0.6-6.5,1.8c-1.4,1.1-2.3,2.7-2.2,4.5c0,1.4,0.7,2.6,1.8,3.4c1.2,1.1,4,2.1,8.4,3c10.9,2.4,18.7,4.7,23.5,7.1
	c4.8,2.4,8.2,5.4,10.3,9c2.2,3.6,3.3,7.8,3.2,12c0,5.1-1.4,10.1-4.3,14.4c-3,4.4-7.1,7.9-12,9.9c-5.2,2.3-11.7,3.4-19.4,3.4
	c-13.7,0-23.2-2.6-28.6-8S262.3,371.8,261.6,363.6z M9.2,390.4v-80.9h41.7c7.7,0,13.7,0.6,17.7,2c4,1.3,7.5,3.9,9.9,7.4
	c2.6,3.9,3.9,8.4,3.8,13.1c0.3,8-3.8,15.6-10.8,19.5c-2.7,1.5-5.7,2.6-8.8,3.2c2.3,0.6,4.5,1.7,6.5,3c1.5,1.3,2.8,2.7,4,4.3
	c1.4,1.5,2.5,3.3,3.5,5.1l12.1,23.4H60.5l-13.4-24.9c-1.7-3.2-3.2-5.2-4.5-6.2c-1.8-1.3-4-1.9-6.2-1.9h-2.2v32.8L9.2,390.4
	L9.2,390.4z M34.3,342.3h10.6c2.3-0.2,4.4-0.5,6.6-1.1c1.6-0.3,3.1-1.2,4.1-2.5c2.4-3.3,2.1-7.9-0.9-10.7c-1.6-1.4-4.8-2.1-9.3-2.1
	h-11V342.3z M3.5,459.7l23.8-1.5c0.5,3.9,1.5,6.8,3.2,8.9c2.5,3.3,6.2,5,11,5c3.5,0,6.3-0.8,8.2-2.5c1.8-1.4,2.9-3.5,2.9-5.8
	c0-2.2-1-4.3-2.7-5.6c-1.8-1.6-6.1-3.3-12.8-4.7c-10.9-2.4-18.8-5.7-23.4-9.9c-4.6-3.9-7.2-9.6-7.1-15.6c0-4.2,1.3-8.3,3.6-11.8
	c2.7-3.9,6.4-7,10.9-8.7c4.8-2.1,11.5-3.2,19.9-3.2c10.3,0,18.2,1.9,23.6,5.8c5.4,3.9,8.6,9.9,9.6,18.4l-23.5,1.4
	c-0.6-3.6-1.9-6.2-4-8c-2-1.7-4.8-2.5-8.3-2.4c-2.9,0-5.1,0.6-6.5,1.9c-1.4,1.1-2.3,2.7-2.2,4.5c0,1.4,0.7,2.6,1.8,3.4
	c1.2,1.1,4,2.1,8.4,3c10.9,2.4,18.7,4.7,23.5,7.1c4.8,2.4,8.2,5.4,10.3,9c2.2,3.6,3.3,7.8,3.3,11.9c0,5.1-1.5,10-4.3,14.3
	c-3,4.4-7.1,7.9-12,9.9c-5.2,2.3-11.7,3.4-19.4,3.4c-13.7,0-23.2-2.6-28.6-8C7.2,474.5,4.2,467.8,3.5,459.7L3.5,459.7z"/>
<path fill="#FFFFFF" stroke="#4B4B55" stroke-miterlimit="10" d="M123.8,453.4l21.9,6.6c-1.2,5.5-3.6,10.8-7,15.4
	c-3.1,4.1-7.1,7.2-11.8,9.3c-4.7,2.1-10.7,3.2-17.9,3.2c-8.8,0-16-1.3-21.5-3.8c-5.6-2.5-10.4-7.1-14.5-13.5S67,455.9,67,445.8
	c0-13.4,3.5-23.7,10.7-30.8c7.1-7.1,17.2-10.8,30.2-10.8c10.2,0,18.2,2.1,24.1,6.2c5.8,4.2,10.1,10.5,13,19l-22.1,4.9
	c-0.5-1.9-1.4-3.8-2.4-5.4c-1.4-1.9-3.1-3.3-5.2-4.4c-2.1-1.1-4.4-1.5-6.8-1.5c-5.7,0-10,2.3-13,6.9c-2.3,3.3-3.4,8.7-3.4,15.9
	c0,9,1.4,15.1,4.1,18.5c2.7,3.3,6.5,5,11.5,5c4.8,0,8.4-1.4,10.9-4C120.9,462.3,122.7,458.4,123.8,453.4L123.8,453.4z M174.9,405.6
	h25v28.3h27.3v-28.3h25.1v80.9h-25.1v-32.7h-27.3v32.7h-25C174.9,486.5,174.9,405.6,174.9,405.6z"/>
<path fill="#FFFFFF" stroke="#4B4B55" stroke-miterlimit="10" d="M248.9,446c0-13.2,3.7-23.5,11-30.8c7.3-7.3,17.6-11,30.8-11
	c13.5,0,23.8,3.6,31.1,10.9c7.3,7.2,10.9,17.4,10.9,30.4c0,9.5-1.6,17.2-4.8,23.2c-3.1,6-7.9,10.9-13.7,14.1
	c-6.1,3.3-13.6,5.1-22.5,5.1c-9.1,0-16.6-1.4-22.6-4.3c-6.2-3.1-11.2-7.9-14.6-13.7C250.8,463.4,248.9,455.5,248.9,446z
	 M273.9,446.1c0,8.1,1.5,14,4.5,17.6c3,3.5,7.1,5.3,12.4,5.3c5.3,0,9.5-1.7,12.5-5.2c3-3.5,4.4-9.8,4.4-18.8
	c0-7.6-1.5-13.2-4.6-16.6c-3.1-3.5-7.2-5.2-12.5-5.2c-4.6-0.2-9,1.8-12.1,5.3S273.9,437.9,273.9,446.1L273.9,446.1z M358.3,446
	c0-13.2,3.7-23.5,11-30.8c7.3-7.3,17.6-11,30.8-11c13.5,0,23.9,3.6,31.1,10.9c7.2,7.2,10.9,17.4,10.9,30.4c0,9.5-1.6,17.2-4.8,23.2
	c-3.1,6-7.9,10.9-13.7,14.1c-6.1,3.3-13.6,5.1-22.5,5.1c-9.1,0-16.6-1.4-22.6-4.3c-6.2-3.1-11.2-7.9-14.6-13.7
	C360.2,463.4,358.3,455.5,358.3,446z M383.3,446.1c0,8.1,1.5,14,4.5,17.6c3,3.5,7.1,5.3,12.4,5.3c5.3,0,9.5-1.7,12.5-5.2
	c3-3.5,4.4-9.8,4.4-18.8c0-7.6-1.5-13.2-4.6-16.6c-3.1-3.5-7.2-5.2-12.5-5.2c-4.6-0.2-9.1,1.8-12.1,5.3
	C384.8,432,383.3,437.9,383.3,446.1L383.3,446.1z"/>
<path fill="#FFFFFF" stroke="#4B4B55" stroke-miterlimit="10" d="M439.6,405.6h25v61h39v19.9h-64L439.6,405.6L439.6,405.6z"/>
<ellipse transform="matrix(-0.6018 -0.7986 0.7986 -0.6018 324.5351 888.831)" fill="none" cx="383.8" cy="363.5" rx="46.9" ry="57"/>
<g>
	<g id="Layer_2_1_">
		<g id="Layer_1-2">
			
				<ellipse transform="matrix(-0.6018 -0.7986 0.7986 -0.6018 324.5351 888.831)" fill="none" stroke="#FFFFFF" stroke-width="2" stroke-miterlimit="10" cx="383.8" cy="363.5" rx="46.9" ry="57"/>
			
				<ellipse transform="matrix(-0.6018 -0.7986 0.7986 -0.6018 324.5351 888.831)" fill="none" stroke="#FFFFFF" stroke-width="2" stroke-miterlimit="10" cx="383.8" cy="363.5" rx="46.9" ry="57"/>
			<path fill="#FFFFFF" d="M358.4,357.6l9-6.3l11.1,15.8c1.9,2.5,3.3,5.2,4.4,8.2c0.6,2.3,0.5,4.7-0.5,6.9c-1.2,2.7-3.1,5-5.6,6.6
				c-3,2.1-5.5,3.3-7.7,3.6c-2.1,0.4-4.3,0-6.2-0.9c-2.2-1.1-4.1-2.6-5.5-4.6l7.8-7.2c0.6,1,1.4,1.9,2.4,2.6
				c0.6,0.5,1.4,0.7,2.2,0.7c0.6,0,1.3-0.3,1.7-0.6c0.9-0.5,1.5-1.6,1.4-2.7c-0.3-1.5-0.9-3.1-1.9-4.3L358.4,357.6L358.4,357.6z
				 M385.6,367.6l8.2-6.5c0.9,1.1,2.1,1.9,3.3,2.4c1.8,0.5,3.7,0.2,5.2-1c1.1-0.7,2-1.7,2.4-3c0.5-1.6-0.4-3.4-2-4
				c-0.3-0.1-0.5-0.2-0.8-0.2c-1.1-0.1-3,0.4-5.8,1.5c-4.6,1.9-8.2,2.6-10.9,2.4c-2.6-0.3-5.1-1.6-6.5-3.9c-1.1-1.5-1.6-3.3-1.7-5.2
				c0-2.1,0.5-4.2,1.7-5.9c1.7-2.4,3.8-4.5,6.3-6.2c3.8-2.6,7.1-3.9,10-3.9c2.9,0,5.6,1.4,8.1,4.2l-8.1,6.4
				c-1.6-2.1-4.7-2.5-6.8-0.9l-0.3,0.3c-0.9,0.5-1.5,1.4-1.9,2.4c-0.3,0.7-0.1,1.5,0.4,2.2c0.4,0.5,0.9,0.8,1.5,0.8
				c0.7,0.1,2-0.3,3.8-1.1c4.5-1.9,8-3,10.3-3.3c2-0.4,4.1-0.2,6,0.6c1.7,0.7,3.2,2,4.2,3.5c1.3,1.8,2,4,2.1,6.2
				c0.1,2.4-0.5,4.6-1.8,6.6c-1.6,2.4-3.7,4.5-6.2,6.2c-5,3.4-9,4.9-12.3,4.3C390.5,372,387.6,370.2,385.6,367.6L385.6,367.6z"/>
		</g>
	</g>
</g>
</svg>
